<svg id="Layer_1" data-name="Layer 1" xmlns="http://www.w3.org/2000/svg" viewBox="0 0 247.22 122.83"><defs><style>.cls-1{fill:#FFFFFF;}</style></defs><path class="cls-1" d="M66.26,0l42,108.3q2.42,6.23,5.45,8.56a10.47,10.47,0,0,0,5.45,2.51v3.46q-5.19-.35-12.2-.43t-14.1-.09q-8,0-15.05.09t-11.25.43v-3.46q8.84-.34,11.16-3t-1.12-11.5L47.23,24.39l3.11-4.49L24.05,88.4Q20.24,97.93,19.46,104c-.52,4-.23,7.16.87,9.34a9,9,0,0,0,5.36,4.59,30.24,30.24,0,0,0,8.91,1.47v3.46q-5.72-.35-10.9-.43t-10.55-.09q-3.81,0-7.18.09a57.52,57.52,0,0,0-6,.43v-3.46q3.63-.69,7.44-4.67t7.44-13.49L54.32,0c1.85.12,3.84.17,6,.17S64.41.12,66.26,0ZM78.37,73v3.46H26.82L28.55,73Z"/><path class="cls-1" d="M120.41,122.83v-3.46a30.56,30.56,0,0,0,8.3-1.38,6,6,0,0,0,3.72-4.16,34,34,0,0,0,.95-9.34V18.68a33.79,33.79,0,0,0-.95-9.42,6.23,6.23,0,0,0-3.8-4.16,25.61,25.61,0,0,0-8.22-1.29V.35q4.5.17,11.68.34t15.65.18Q155,.87,162.1.69T173.87.35V3.81a26.1,26.1,0,0,0-8.39,1.29,6,6,0,0,0-3.72,4.16,37,37,0,0,0-.87,9.42v85.81a34.36,34.36,0,0,0,1,9.34,6.06,6.06,0,0,0,3.72,4.16,30.64,30.64,0,0,0,8.31,1.38v3.46q-4.68-.35-11.77-.43t-14.36-.09q-8.48,0-15.65.09T120.41,122.83ZM149.65,63V59.51H218V63Zm44.11,59.86v-3.46a30.72,30.72,0,0,0,8.31-1.38,6.06,6.06,0,0,0,3.72-4.16,34.36,34.36,0,0,0,1-9.34V18.68a34.17,34.17,0,0,0-1-9.42A6.27,6.27,0,0,0,202,5.1a25.56,25.56,0,0,0-8.22-1.29V.35q4.68.17,12.2.34t15,.18q8,0,15-.18c4.67-.11,8.44-.23,11.33-.34V3.81a26.15,26.15,0,0,0-8.39,1.29,6,6,0,0,0-3.72,4.16,37,37,0,0,0-.87,9.42v85.81a33.88,33.88,0,0,0,1,9.34,6,6,0,0,0,3.71,4.16,30.72,30.72,0,0,0,8.31,1.38v3.46c-2.89-.23-6.66-.37-11.33-.43s-9.66-.09-15-.09q-7.44,0-15,.09T193.76,122.83Z"/></svg>