<?xml version="1.0" standalone="no"?>
<!DOCTYPE svg PUBLIC "-//W3C//DTD SVG 20010904//EN"
 "http://www.w3.org/TR/2001/REC-SVG-20010904/DTD/svg10.dtd">
<svg version="1.0" xmlns="http://www.w3.org/2000/svg"
 width="1976.000000pt" height="1976.000000pt" viewBox="0 0 1976.000000 1976.000000"
 preserveAspectRatio="xMidYMid meet">
<metadata>
Created by potrace 1.14, written by Peter Selinger 2001-2017
</metadata>
<g transform="translate(0.000000,1976.000000) scale(0.100000,-0.100000)"
fill="#000000" stroke="none">
<path d="M4334 14772 c-3 -9 -18 -46 -32 -82 -15 -36 -27 -71 -28 -78 -1 -6
-11 -31 -22 -55 -11 -23 -29 -67 -40 -97 -11 -30 -26 -68 -33 -85 -7 -16 -13
-32 -13 -35 -3 -12 -60 -156 -66 -165 -4 -5 -13 -30 -20 -55 -8 -25 -20 -55
-28 -67 -7 -12 -13 -24 -13 -27 1 -16 -187 -496 -199 -510 -5 -5 -6 -15 -3
-22 3 -8 0 -14 -7 -14 -6 0 -9 -3 -6 -8 2 -4 -4 -25 -14 -47 -11 -22 -19 -48
-20 -58 0 -10 -4 -16 -8 -13 -4 2 -8 -4 -9 -14 -1 -16 -34 -101 -81 -215 -9
-21 -18 -43 -18 -47 -1 -4 -3 -11 -4 -15 -1 -5 -2 -11 -1 -15 0 -5 -3 -8 -8
-8 -8 0 -25 -56 -22 -72 0 -5 -3 -8 -9 -8 -5 0 -10 -6 -10 -13 0 -13 -56 -159
-86 -224 -8 -17 -14 -35 -14 -40 0 -6 -7 -24 -16 -42 -9 -17 -17 -37 -18 -44
-1 -7 -8 -23 -16 -37 -7 -14 -12 -25 -11 -25 1 0 -3 -13 -9 -30 -7 -16 -13
-34 -14 -40 -3 -10 -8 -22 -39 -97 -8 -20 -13 -39 -9 -42 3 -3 0 -6 -7 -6 -7
0 -9 -4 -6 -10 3 -5 1 -10 -4 -10 -6 0 -10 -3 -10 -7 1 -5 0 -10 -1 -13 -1 -3
-3 -12 -5 -21 -1 -9 -9 -32 -18 -50 -20 -46 -59 -144 -102 -259 -20 -52 -42
-108 -49 -125 -8 -16 -22 -52 -31 -80 -10 -27 -28 -72 -40 -100 -12 -27 -25
-61 -29 -75 -4 -14 -11 -34 -16 -45 -6 -11 -44 -108 -85 -215 -42 -107 -80
-204 -84 -215 -5 -11 -14 -36 -21 -55 -7 -19 -16 -44 -21 -55 -4 -11 -38 -96
-74 -190 -37 -93 -73 -186 -80 -205 -17 -40 -38 -93 -40 -100 -1 -3 -5 -14
-10 -25 -4 -11 -39 -101 -77 -200 -38 -99 -73 -189 -78 -200 -12 -27 -61 -148
-64 -160 -2 -5 -6 -22 -11 -37 -4 -16 -10 -28 -14 -28 -4 0 -7 -8 -8 -17 -1
-10 -34 -96 -72 -192 -39 -96 -68 -177 -66 -182 3 -4 1 -9 -3 -11 -5 -1 -37
-77 -72 -168 -35 -91 -70 -181 -79 -200 -8 -19 -15 -37 -16 -40 -1 -3 -5 -14
-9 -25 -45 -115 -101 -261 -102 -265 -1 -6 -22 -59 -33 -85 -12 -25 -23 -57
-26 -70 -4 -18 -67 -170 -82 -197 -8 -16 -11 -28 -8 -28 3 0 0 -10 -7 -22 -7
-13 -13 -25 -14 -28 -1 -7 -11 -34 -41 -110 -39 -102 -40 -103 -53 -135 -8
-16 -14 -34 -16 -40 -2 -11 -39 -107 -53 -140 -20 -46 -54 -130 -56 -140 -1
-5 -7 -21 -12 -35 -6 -14 -30 -74 -53 -135 -23 -60 -50 -128 -60 -150 -9 -22
-23 -58 -30 -80 -7 -22 -16 -44 -21 -49 -5 -6 -9 -16 -9 -23 0 -8 -9 -33 -20
-55 -11 -23 -20 -47 -20 -52 0 -6 -6 -22 -13 -36 -7 -14 -21 -47 -31 -75 -10
-27 -21 -59 -26 -70 -25 -58 -62 -152 -65 -170 -3 -11 -9 -21 -15 -23 -6 -2
-8 -8 -5 -12 3 -5 -3 -28 -14 -52 -10 -24 -38 -89 -60 -145 -23 -56 -46 -115
-53 -130 -6 -15 -11 -31 -10 -35 1 -5 -2 -8 -8 -8 -5 0 -10 -5 -10 -10 0 -6
-7 -27 -17 -48 -9 -20 -17 -39 -17 -42 -6 -28 -199 -388 -215 -400 -3 -3 -15
-22 -26 -42 -11 -21 -23 -38 -27 -38 -5 0 -8 -5 -8 -10 0 -6 -4 -16 -10 -23
-5 -7 -33 -41 -61 -77 -72 -90 -210 -226 -294 -288 -38 -28 -74 -55 -80 -59
-5 -5 -28 -17 -50 -28 -22 -11 -53 -29 -70 -40 -16 -11 -32 -19 -35 -19 -3 1
-16 -3 -30 -8 -14 -5 -46 -14 -72 -20 l-48 -11 0 -140 0 -139 63 6 c34 4 81 9
104 12 119 14 293 17 1003 17 782 1 1034 -4 1475 -28 l121 -7 -2 133 c-1 74
-2 137 -3 140 0 3 -31 6 -68 7 -82 2 -221 16 -273 27 -14 3 -41 8 -60 11 -19
2 -56 9 -81 15 -26 6 -54 11 -63 13 -8 1 -19 5 -22 9 -4 4 -15 7 -23 7 -61 0
-269 91 -340 148 -45 36 -121 110 -121 118 0 3 -12 20 -26 37 -64 76 -125 250
-140 397 -12 116 -6 354 11 442 3 13 7 43 10 67 3 25 8 54 10 65 3 12 7 32 9
46 2 14 11 55 20 91 8 37 17 78 20 90 2 13 9 35 14 49 5 14 10 30 11 35 1 6 6
28 12 50 6 22 12 45 13 50 2 6 13 44 26 85 13 41 24 77 25 80 0 3 9 30 20 60
11 30 18 58 17 63 -1 4 2 7 6 7 4 0 8 8 9 18 2 21 146 408 193 517 8 17 14 35
15 40 2 6 33 87 69 180 37 94 68 175 70 180 2 6 8 21 13 35 6 14 18 47 27 73
9 27 23 62 32 78 8 16 12 34 9 39 -3 6 -1 10 4 10 6 0 11 6 11 13 0 6 16 49
34 94 19 45 31 84 28 88 -3 3 10 3 29 1 19 -2 42 1 52 6 9 5 17 5 17 0 0 -10
81 -9 98 2 7 4 12 4 12 -1 0 -4 77 -8 170 -8 94 0 170 4 170 8 0 4 8 4 18 -1
21 -10 92 -9 110 1 6 5 12 5 12 0 0 -4 113 -8 250 -8 138 0 250 4 250 8 0 4 8
4 18 -1 21 -10 92 -9 110 1 6 5 12 5 12 0 0 -4 76 -8 170 -8 93 0 170 4 170 8
0 5 5 5 12 1 16 -10 308 -11 308 -1 0 4 8 4 18 -1 21 -10 92 -9 110 1 6 5 12
5 12 0 0 -10 261 -10 278 1 6 4 12 4 12 -1 0 -4 83 -8 185 -8 102 0 185 4 185
8 0 4 8 4 18 -1 21 -10 92 -9 110 1 6 5 12 4 12 -1 0 -5 18 -8 40 -6 36 3 42
0 52 -24 6 -15 14 -36 19 -47 4 -11 22 -60 39 -110 17 -49 35 -99 40 -110 10
-24 22 -57 25 -67 2 -5 4 -10 5 -13 1 -3 3 -8 5 -12 2 -8 6 -20 24 -68 21 -53
33 -91 34 -102 0 -7 4 -13 9 -13 4 0 8 -7 8 -15 0 -12 67 -203 91 -260 5 -11
18 -47 30 -80 11 -33 23 -67 26 -75 4 -8 7 -17 8 -20 0 -3 11 -32 23 -65 27
-72 31 -83 33 -93 1 -4 10 -29 21 -57 11 -27 31 -79 43 -115 31 -87 164 -451
172 -470 3 -8 7 -17 8 -20 5 -21 19 -60 30 -85 7 -16 37 -97 66 -180 29 -82
55 -154 59 -160 3 -5 12 -30 20 -55 7 -25 17 -49 22 -54 4 -6 8 -16 8 -22 0
-7 5 -25 12 -41 6 -15 12 -32 13 -38 0 -5 4 -17 8 -25 8 -19 55 -196 62 -235
26 -145 25 -288 -4 -368 -20 -58 -92 -147 -118 -147 -7 0 -13 -4 -13 -9 0 -10
-107 -64 -127 -64 -7 0 -13 -4 -13 -9 0 -4 -3 -7 -7 -6 -5 1 -33 -6 -64 -15
-30 -9 -73 -19 -95 -23 -21 -3 -43 -8 -48 -12 -5 -3 -28 -6 -50 -8 -23 -2 -52
-5 -66 -8 -52 -10 -118 -16 -220 -22 -58 -3 -108 -9 -112 -13 -7 -6 -10 -84
-9 -203 l1 -67 73 4 c39 2 108 7 152 10 261 17 780 24 1795 24 966 0 1404 -4
1419 -13 6 -4 11 -2 11 4 0 6 4 9 9 6 5 -3 94 -8 197 -11 234 -7 332 -11 454
-20 l95 -6 0 135 c0 74 -3 137 -5 140 -3 2 -19 7 -35 10 -17 2 -30 5 -30 6 0
1 -10 4 -50 13 -49 12 -181 71 -195 88 -3 3 -16 12 -30 19 -54 28 -168 132
-241 218 -50 59 -165 248 -161 264 1 3 -5 12 -13 18 -8 7 -15 16 -15 21 0 5
-13 37 -29 71 -33 72 -43 97 -47 117 -1 7 -7 18 -13 24 -6 6 -11 17 -11 24 0
7 -8 32 -19 56 -10 23 -29 69 -41 102 -12 33 -28 74 -35 90 -15 35 -58 146
-61 158 -1 4 -3 9 -4 12 -1 3 -3 8 -4 13 -2 4 -7 18 -14 32 -6 14 -23 57 -37
95 -14 39 -30 79 -35 90 -5 11 -32 81 -60 155 -28 74 -55 144 -59 155 -18 45
-29 71 -42 100 -7 17 -13 32 -14 35 -5 22 -19 60 -30 85 -8 17 -26 62 -40 100
-14 39 -30 79 -35 90 -4 11 -22 56 -39 100 -17 44 -36 94 -42 110 -7 17 -13
32 -14 35 -6 17 -18 49 -27 70 -6 14 -12 30 -14 35 -3 14 -92 244 -107 275 -6
14 -12 30 -12 35 -1 6 -7 21 -13 35 -19 42 -62 153 -62 161 0 3 -8 24 -17 45
-9 22 -17 41 -18 44 -1 3 -7 19 -14 35 -6 17 -30 77 -52 135 -22 58 -44 114
-49 125 -13 26 -81 207 -84 220 -1 6 -7 20 -14 31 -6 12 -8 24 -5 28 3 3 1 6
-6 6 -7 0 -10 4 -6 9 3 5 1 12 -4 15 -5 3 -12 17 -15 31 -5 20 -111 299 -145
380 -5 11 -9 23 -9 28 -1 4 -8 20 -16 36 -9 16 -12 31 -9 35 4 3 1 6 -5 6 -7
0 -12 7 -12 15 0 12 -42 127 -69 190 -5 11 -24 58 -41 105 -18 47 -38 99 -45
115 -6 17 -22 57 -35 90 -12 33 -33 86 -46 118 -13 31 -21 57 -17 57 3 0 1 6
-5 13 -5 6 -23 48 -40 92 -16 44 -33 89 -38 100 -4 11 -8 22 -9 25 0 3 -8 21
-17 40 -8 19 -21 51 -28 70 -7 19 -19 50 -27 69 -8 18 -16 39 -18 45 -1 6 -7
22 -12 36 -6 14 -11 27 -11 30 -1 3 -20 50 -42 105 -23 55 -43 105 -44 110 -1
6 -15 44 -31 85 -16 41 -30 77 -30 80 -1 3 -9 22 -18 44 -9 21 -17 40 -17 42
0 1 -5 15 -12 31 -6 15 -12 30 -13 33 -1 3 -7 18 -13 33 -7 16 -12 34 -12 40
0 7 -6 21 -13 32 -7 11 -18 38 -25 60 -8 22 -17 49 -22 60 -5 11 -28 67 -50
125 -22 58 -45 114 -50 125 -9 22 -44 117 -46 125 0 3 -6 16 -12 30 -6 14 -39
97 -72 185 -34 88 -66 169 -71 180 -4 11 -29 74 -54 140 -25 66 -53 138 -62
160 -21 54 -24 61 -82 210 -28 72 -51 133 -51 138 0 7 -34 88 -51 119 -5 10
-9 26 -9 36 0 10 -4 22 -8 28 -5 5 -19 36 -31 69 -13 33 -27 69 -31 80 -43
109 -83 211 -103 265 -14 36 -28 74 -32 85 -5 11 -7 23 -7 28 1 4 -3 7 -10 7
-6 0 -9 3 -5 6 3 4 0 19 -8 34 -8 15 -11 30 -8 34 4 3 1 6 -5 6 -7 0 -12 6
-12 14 0 14 -27 87 -61 163 -11 24 -19 47 -19 53 0 6 -9 30 -21 54 -11 25 -22
51 -23 58 -1 7 -10 30 -19 51 -9 21 -18 45 -19 55 -2 9 -6 19 -9 22 -3 3 -30
68 -59 145 -29 77 -61 160 -70 185 -10 25 -35 89 -55 142 l-38 98 -116 -6
c-149 -7 -537 -8 -709 0 -120 5 -133 4 -138 -12z m-469 -2177 c15 -38 33 -88
40 -110 7 -22 27 -78 45 -125 17 -47 38 -105 47 -130 8 -25 19 -49 24 -54 5
-6 9 -20 9 -31 0 -12 3 -25 7 -28 6 -7 51 -128 56 -154 2 -7 6 -16 10 -19 4
-4 7 -16 7 -26 0 -10 4 -18 8 -18 4 0 8 -8 9 -17 1 -10 7 -31 14 -48 7 -16 13
-34 15 -40 14 -45 78 -216 89 -242 9 -17 18 -45 21 -62 4 -17 11 -34 15 -37 5
-3 7 -10 4 -15 -4 -5 -1 -9 4 -9 6 0 10 -3 9 -7 -2 -9 9 -47 22 -78 5 -11 29
-78 55 -150 25 -71 49 -137 52 -145 4 -8 7 -17 8 -20 1 -3 6 -16 12 -30 5 -14
18 -50 29 -80 10 -30 24 -66 31 -79 7 -14 10 -28 7 -33 -3 -4 0 -8 6 -8 6 0 9
-3 7 -7 -3 -5 0 -19 6 -33 5 -14 11 -29 13 -35 7 -24 47 -131 52 -140 4 -5 7
-14 8 -20 1 -5 12 -37 24 -70 71 -194 123 -334 133 -360 6 -16 12 -34 13 -40
2 -9 87 -243 101 -275 3 -8 7 -19 8 -25 5 -17 87 -239 97 -260 5 -12 10 -27
12 -35 2 -8 8 -28 14 -43 7 -16 12 -33 12 -38 0 -5 5 -9 11 -9 5 0 7 -4 4 -10
-3 -5 3 -31 14 -57 21 -50 124 -333 135 -369 l6 -20 -1389 0 c-764 1 -1392 4
-1396 7 -3 4 2 24 11 45 20 45 18 39 28 82 4 17 12 32 16 32 5 0 7 7 4 15 -4
8 -1 15 5 15 6 0 10 3 9 8 -2 6 37 116 66 187 7 17 19 46 26 65 6 19 16 44 21
55 5 11 25 63 44 115 43 114 44 118 46 128 0 4 6 16 12 27 6 11 11 23 12 27 0
3 3 10 8 14 4 4 7 14 7 23 0 9 6 27 13 41 7 14 24 54 36 90 25 69 40 106 61
155 7 17 15 37 16 45 2 8 7 23 12 35 6 11 15 34 21 50 6 17 16 44 22 60 7 17
13 32 14 35 1 3 6 16 12 30 6 14 22 58 37 99 15 41 30 79 34 85 3 6 7 16 9 21
1 6 20 56 41 113 22 56 37 102 34 102 -4 0 -2 4 4 8 11 7 50 111 46 125 -1 4
2 7 8 7 5 0 10 8 10 18 0 9 7 30 15 46 8 15 15 35 15 42 0 8 5 14 10 14 6 0 9
3 8 8 -3 9 31 110 45 137 6 11 12 25 13 31 1 6 18 53 39 105 20 52 42 108 48
124 6 17 12 32 13 35 0 3 5 16 11 30 27 62 36 86 38 95 1 10 10 34 25 70 13
29 43 107 80 205 17 47 38 99 45 115 7 17 18 48 25 70 7 22 16 45 21 51 5 6 6
14 2 17 -3 4 -1 7 5 7 7 0 11 3 10 8 -1 4 4 23 11 42 16 39 15 37 25 65 4 11
14 35 22 53 8 18 14 37 14 42 0 6 8 29 19 53 10 23 35 85 54 137 19 52 39 104
43 115 8 22 11 31 13 42 3 16 21 -17 46 -82z"/>
<path d="M9690 14760 l-65 -5 0 -132 c0 -83 4 -133 10 -134 5 -1 44 -3 85 -5
41 -2 98 -7 125 -10 28 -3 67 -7 87 -8 21 0 38 -5 38 -10 0 -4 9 -6 20 -3 11
3 23 1 26 -4 3 -5 9 -7 13 -4 5 2 23 0 42 -6 19 -5 50 -12 69 -15 19 -3 40
-10 46 -15 6 -5 14 -6 17 -2 4 3 12 1 19 -4 7 -5 33 -15 58 -22 57 -17 145
-77 198 -136 43 -48 98 -150 106 -197 3 -15 7 -32 10 -37 5 -8 12 -43 21 -111
2 -14 6 -36 9 -50 4 -14 8 -43 11 -65 2 -22 6 -51 9 -65 3 -14 7 -59 11 -100
6 -81 6 -7393 0 -7500 -4 -64 -12 -135 -15 -135 -1 0 -3 -11 -5 -25 -6 -47
-15 -105 -20 -130 -4 -14 -8 -34 -10 -45 -9 -49 -16 -81 -22 -100 -4 -11 -8
-23 -9 -27 -1 -5 -3 -10 -4 -13 -1 -3 -3 -8 -5 -12 -15 -55 -80 -144 -142
-196 -41 -34 -126 -82 -143 -80 -3 1 -13 -3 -23 -9 -10 -5 -31 -12 -45 -15
-41 -8 -57 -11 -57 -13 0 -2 -7 -3 -60 -14 -43 -9 -135 -26 -170 -32 -16 -2
-42 -6 -57 -9 -14 -2 -73 -7 -130 -11 -56 -4 -105 -9 -108 -11 -2 -2 -5 -65
-5 -139 l-1 -135 81 6 c137 10 253 15 440 20 99 2 180 5 180 5 0 4 746 9 1395
9 1217 0 1732 -8 2103 -34 l77 -5 1 72 c1 88 -1 201 -4 204 -1 1 -47 4 -102 8
-83 5 -155 12 -210 20 -5 1 -14 4 -20 7 -5 3 -28 7 -50 8 -22 2 -48 7 -58 13
-10 5 -24 7 -32 5 -7 -3 -24 1 -39 8 -14 8 -26 12 -26 10 0 -5 -120 31 -155
47 -91 41 -181 127 -226 216 -13 26 -24 49 -24 52 -1 3 -7 23 -13 45 -6 22
-13 51 -16 65 -2 14 -5 25 -6 25 -1 0 -3 11 -6 25 -7 40 -13 73 -18 100 -17
91 -21 139 -31 310 -3 63 -8 127 -10 143 -2 15 1 27 6 27 6 0 6 7 1 18 -5 9
-7 25 -3 34 3 9 4 65 1 123 -3 59 -3 108 0 110 3 2 3 53 0 114 -3 61 -3 120 0
132 3 12 3 50 0 86 -3 35 -3 66 0 68 3 2 3 56 0 120 -3 64 -3 118 0 120 3 2 3
56 0 120 -3 64 -3 118 0 120 3 2 3 56 0 120 -3 64 -3 118 0 120 3 2 3 56 0
120 -3 64 -3 118 0 120 3 2 3 56 0 120 -3 64 -3 118 0 120 3 2 3 56 0 120 -3
64 -3 118 0 120 3 2 3 56 0 120 -3 64 -3 118 0 120 3 2 3 56 0 120 -3 64 -3
118 0 120 3 2 3 56 0 120 -3 64 -3 118 0 120 3 2 3 56 0 120 -3 64 -3 118 0
120 3 2 3 56 0 120 -3 64 -2 119 1 121 4 2 4 14 2 26 l-4 23 1836 0 1836 0 -4
-1810 c-3 -1619 -6 -1911 -22 -1965 -2 -8 -7 -35 -10 -60 -3 -25 -8 -52 -10
-60 -2 -8 -7 -28 -10 -45 -18 -105 -32 -155 -64 -225 -17 -38 -27 -53 -84
-116 -60 -67 -157 -122 -247 -141 -45 -9 -55 -11 -55 -13 0 -1 -11 -4 -25 -7
-39 -7 -55 -11 -55 -13 0 -2 -32 -8 -75 -14 -19 -3 -51 -8 -70 -11 -19 -4 -46
-8 -60 -11 -30 -5 -184 -17 -222 -17 -16 -1 -28 -5 -29 -11 0 -6 -2 -69 -2
-139 l-2 -128 100 7 c412 26 858 33 2070 33 1056 0 1325 -2 1325 -11 0 -4 10
-4 23 1 12 4 31 7 42 5 11 -2 108 -6 215 -8 107 -3 233 -8 280 -11 47 -3 115
-8 153 -10 l67 -5 0 140 0 140 -52 1 c-29 1 -64 2 -78 4 -14 1 -56 6 -95 10
-38 4 -77 9 -87 11 -54 12 -65 14 -90 16 -16 1 -28 6 -28 11 0 4 -4 6 -8 3
-11 -7 -212 47 -249 67 -67 35 -83 45 -114 73 -37 32 -86 94 -87 108 0 5 -4
12 -9 15 -21 14 -69 155 -78 226 -1 11 -6 36 -10 55 -5 19 -9 49 -11 65 -1 17
-3 32 -5 35 -1 3 -3 16 -4 30 -2 14 -4 27 -5 30 -5 13 -9 64 -14 160 -3 58 -6
107 -6 110 -2 34 2 7289 5 7325 1 28 6 77 10 110 4 33 8 74 10 90 4 40 15 99
31 175 3 14 7 36 10 50 21 109 104 240 184 289 19 12 42 26 50 31 19 13 90 42
110 46 8 1 48 11 88 22 39 11 72 18 72 15 0 -3 7 1 17 8 9 8 17 12 17 10 1 -3
90 7 131 16 25 5 160 14 238 16 l57 2 0 137 c0 76 -3 138 -7 139 -42 3 -93 3
-93 -1 0 -3 -28 -6 -62 -6 -35 -1 -173 -4 -308 -7 -135 -4 -346 -10 -469 -13
-124 -3 -228 -7 -233 -10 -4 -3 -8 1 -8 8 0 8 -3 9 -8 3 -4 -6 -105 -10 -267
-10 -143 0 -265 -4 -272 -8 -6 -4 -13 -4 -16 0 -3 4 -27 7 -54 6 -93 -3 -174
-4 -213 -3 -8 0 -26 0 -40 -1 -14 0 -29 -1 -35 0 -112 5 -132 5 -128 -3 4 -5
1 -6 -6 -2 -6 4 -208 9 -449 12 -240 2 -518 6 -617 8 -605 15 -846 23 -928 29
-21 1 -42 0 -48 -3 -7 -5 -13 -155 -10 -256 1 -18 7 -20 69 -19 37 0 71 -1 76
-4 5 -2 34 -5 65 -7 31 -1 56 -3 56 -4 0 -1 16 -3 35 -4 19 -2 44 -5 55 -9 18
-5 60 -13 120 -22 11 -2 21 -4 23 -5 1 -2 5 -3 10 -4 4 -1 13 -5 20 -9 6 -5
12 -6 12 -3 0 3 18 -1 40 -9 22 -8 44 -15 48 -16 4 -1 17 -5 30 -10 13 -5 27
-9 31 -9 11 0 117 -77 146 -106 13 -13 22 -24 19 -24 -3 0 6 -10 19 -22 13
-13 29 -38 36 -55 8 -18 18 -33 24 -33 6 0 7 -3 4 -6 -3 -4 -2 -15 4 -26 6
-11 12 -27 14 -36 2 -9 11 -48 20 -85 9 -38 18 -87 21 -110 3 -23 7 -48 10
-56 8 -24 18 -122 19 -178 0 -29 3 -53 7 -53 4 0 8 -798 8 -1774 l0 -1773
-1834 -1 -1834 0 -4 75 c-2 41 -1 76 2 78 3 2 3 56 0 120 -3 64 -3 118 0 120
3 2 3 56 0 120 -3 64 -3 118 0 120 3 2 3 56 0 120 -3 64 -3 118 0 120 3 2 3
56 0 120 -3 64 -3 118 0 120 3 2 3 56 0 120 -3 64 -3 118 0 120 3 2 3 56 0
120 -3 64 -3 118 0 120 3 2 3 56 0 120 -3 64 -3 118 0 120 3 2 3 56 0 120 -3
64 -3 118 0 120 3 2 3 56 0 120 -3 64 -3 118 0 120 3 2 3 56 0 120 -3 64 -3
118 0 120 3 2 3 56 0 120 -3 64 -3 118 0 120 3 2 3 56 0 120 -3 64 -2 119 3
122 4 2 5 8 3 12 -4 6 -6 81 -5 241 0 8 -2 50 -3 93 -2 44 0 84 4 90 4 6 2 17
-4 24 -6 7 -6 13 -2 13 5 0 10 19 11 43 2 99 19 250 38 347 7 34 19 94 20 100
1 3 5 22 9 43 5 20 13 37 19 37 6 0 7 3 4 6 -6 6 12 46 38 83 12 17 117 122
137 136 41 29 134 65 203 78 11 2 27 7 35 10 8 4 26 8 40 11 14 2 36 7 50 10
14 4 41 9 60 11 19 2 44 6 56 8 11 3 38 7 60 8 21 2 42 8 46 14 5 6 8 6 8 -2
0 -7 6 -10 13 -7 7 2 53 6 102 7 l90 3 1 137 0 138 -185 -6 c-478 -13 -579
-16 -756 -21 -104 -3 -351 -7 -547 -9 -196 -2 -362 -7 -369 -11 -7 -4 -9 -3
-5 4 4 7 -3 8 -23 2 -16 -4 -32 -6 -35 -2 -9 8 -146 8 -146 -1 0 -4 -8 -3 -18
2 -11 6 -24 6 -35 0 -9 -6 -22 -7 -28 -3 -16 10 -199 11 -199 1 0 -5 -5 -5
-10 -2 -6 4 -189 9 -408 11 -391 5 -452 6 -967 19 -322 8 -389 11 -401 16 -5
2 -38 2 -74 -1z"/>
</g>
</svg>
